<svg version="1.1" id="Layer_1" xmlns="http://www.w3.org/2000/svg" xmlns:xlink="http://www.w3.org/1999/xlink" x="0px" y="0px"
	 width="100%" viewBox="0 0 1024 784" enable-background="new 0 0 1024 784" xml:space="preserve">
<path fill="#000000" opacity="1.000000" stroke="none" 
	d="M883.592896,586.667847 
	C845.835083,607.418640 806.979797,624.445496 764.886108,635.028992 
	C764.960999,631.778198 766.890869,630.767273 768.120056,629.408142 
	C787.534607,607.941284 805.266602,585.306213 817.055115,558.587769 
	C824.313965,542.135620 828.310852,525.068176 824.646240,507.066345 
	C819.515869,481.863831 789.411743,460.244537 764.091492,463.411011 
	C757.935669,464.180847 752.211121,466.651703 746.673035,469.379303 
	C722.127563,481.468445 700.580872,497.964874 679.577332,515.242004 
	C673.942749,519.876892 668.392883,524.614807 662.945984,529.186401 
	C660.231018,528.307312 660.117249,526.046692 659.349426,524.315308 
	C654.800354,514.057739 649.453308,504.318604 641.807983,495.968597 
	C628.817566,481.780853 612.729797,480.815826 598.835205,494.031250 
	C584.248169,507.905273 573.361511,524.798035 562.126160,541.303955 
	C542.747253,569.773621 526.674744,600.031433 514.641602,632.365112 
	C514.076538,633.883484 513.867126,635.633545 512.251465,636.662781 
	C510.171906,636.261414 510.129456,634.360962 509.584900,632.897278 
	C493.289490,589.100403 469.818329,549.380310 441.290833,512.521973 
	C437.212860,507.253113 433.358795,501.821564 428.707062,497.005524 
	C411.622101,479.317383 393.306244,480.308960 378.422485,499.852203 
	C372.741852,507.311310 368.204224,515.445984 364.520844,524.062744 
	C363.814209,525.715820 363.404022,527.549744 361.902222,528.803162 
	C359.241058,528.484375 357.893829,526.400574 356.180450,524.947327 
	C331.884583,504.339447 307.267609,484.186462 278.548401,469.814117 
	C272.882446,466.978577 267.078796,464.482971 260.791473,463.302704 
	C246.335602,460.589050 233.694839,464.875793 222.579605,473.824646 
	C205.994385,487.177338 195.724075,503.544556 198.097778,526.045776 
	C199.230682,536.784973 201.966370,546.968445 206.126556,556.810242 
	C216.238251,580.731567 231.510468,601.285095 248.312943,620.811829 
	C251.849655,624.921997 255.448578,628.978638 259.309479,633.392151 
	C256.187653,634.637329 253.995255,633.471619 251.909546,632.866333 
	C186.677917,613.936462 126.663208,584.850525 74.572685,540.716187 
	C55.899208,524.894836 39.946640,506.601990 28.025356,485.004181 
	C9.809623,452.002747 8.628707,417.391754 18.440704,381.890137 
	C28.933615,343.924866 51.667759,313.964691 81.170509,288.814850 
	C111.102371,263.299225 145.682266,245.154022 180.792267,228.153320 
	C218.979675,209.662491 258.857147,195.656036 300.327240,186.406158 
	C309.853699,184.281281 319.398499,182.185852 329.195618,181.031693 
	C329.529175,183.731750 327.412750,184.378433 326.198883,185.511017 
	C313.982391,196.909531 302.328186,208.803131 293.535797,223.146301 
	C286.304932,234.942139 281.099792,247.422226 281.207825,261.624115 
	C281.377167,283.892303 290.972290,300.590210 310.427002,311.528351 
	C328.862640,321.893494 348.844574,327.234039 369.700073,329.762543 
	C380.819672,331.110657 391.921143,331.377594 403.064911,329.977631 
	C411.882324,328.869934 418.618042,324.332367 424.008301,317.605560 
	C435.315948,303.494080 440.844788,286.733734 445.616058,269.665161 
	C449.031921,257.445435 450.759308,245.091248 450.924347,232.277969 
	C451.228516,208.664871 452.363922,185.040558 455.691528,161.599014 
	C456.147491,158.386963 456.127991,158.384186 458.182465,155.283936 
	C460.499084,156.023254 461.192017,158.209442 462.246521,160.005920 
	C468.694672,170.991577 472.803131,182.992935 477.065002,194.902237 
	C478.305389,198.368423 479.766266,199.527405 483.539825,198.728683 
	C502.371582,194.742737 521.279541,195.657104 540.059692,198.993835 
	C544.296204,199.746552 545.613953,198.463837 546.852722,194.974976 
	C550.585388,184.462479 554.305725,173.927094 559.500183,164.012375 
	C561.097229,160.964127 562.525513,157.746338 565.638611,155.040039 
	C568.987549,159.730789 568.668823,165.031418 569.178162,169.905060 
	C571.843445,195.407974 572.254456,221.045044 573.587524,246.628769 
	C574.426880,262.738770 580.001526,278.179474 585.919373,293.256561 
	C589.348633,301.993317 593.706177,310.187744 599.558289,317.568481 
	C606.149414,325.881287 614.570679,330.220734 625.283875,330.871155 
	C652.059448,332.496826 677.722168,327.839935 702.273682,317.388672 
	C716.395874,311.376984 729.305298,303.430969 736.440247,288.869720 
	C746.649231,268.035034 743.982605,247.811584 733.113342,228.166641 
	C724.296631,212.231552 712.133972,199.014023 698.690552,186.899567 
	C697.454590,185.785797 696.222290,184.664444 695.053284,183.482376 
	C694.756165,183.181931 694.708557,182.634750 694.339233,181.647430 
	C700.497070,181.532928 706.065430,183.118408 711.648193,184.258301 
	C777.589844,197.722122 838.888306,222.823486 896.650391,257.207458 
	C920.142395,271.191528 942.320557,286.629395 961.102356,306.550446 
	C984.759705,331.642761 1001.563843,360.429230 1008.472046,394.678101 
	C1017.437988,439.128296 1006.211914,478.012146 977.417969,512.415588 
	C951.349670,543.562378 918.885925,566.598816 883.592896,586.667847 
M162.445358,246.031052 
	C135.408539,261.144745 107.953064,275.586487 84.359093,296.092285 
	C56.836983,320.012054 36.281490,348.572784 25.821289,383.819733 
	C15.040823,420.145844 18.312672,454.801666 38.361214,487.489136 
	C51.880638,509.531494 69.531769,527.702942 89.757919,543.544678 
	C123.447594,569.931396 160.652405,590.191162 200.017075,606.667419 
	C212.074493,611.714111 224.246857,616.449890 237.483765,620.422119 
	C231.601730,612.605347 226.002731,605.592834 220.866135,598.256592 
	C206.620422,577.910522 194.185287,556.609741 191.213593,531.363281 
	C189.359009,515.607605 189.933563,500.032867 200.199570,486.488220 
	C204.449768,480.880585 209.217178,475.789124 214.303696,470.980621 
	C231.523529,454.701965 251.616531,450.820679 273.411133,459.173401 
	C297.484680,468.399506 317.669708,484.215393 337.769623,499.943298 
	C344.684052,505.353760 351.451233,510.952393 358.167633,516.369873 
	C360.373169,515.091431 360.864197,513.220337 361.714508,511.657501 
	C366.602112,502.674286 372.475494,494.507050 379.879578,487.342834 
	C393.704712,473.965698 413.210480,473.180359 427.626312,485.985046 
	C431.975189,489.847870 436.294250,493.880157 439.915466,498.404297 
	C464.455414,529.063416 486.158356,561.560974 502.899078,597.203430 
	C505.840607,603.466125 508.687958,609.773132 511.973175,616.917236 
	C516.367310,607.433716 520.129761,598.772217 524.335876,590.331665 
	C540.452759,557.989075 560.487488,528.155396 582.855835,499.851227 
	C586.993042,494.616119 591.913147,490.086365 596.827515,485.578308 
	C608.984314,474.426727 631.989868,474.594696 643.588867,487.282593 
	C650.152649,494.462646 656.461731,501.655609 661.136780,510.201019 
	C662.379395,512.472534 663.663818,514.721130 665.082703,517.254578 
	C672.600281,511.131836 679.601379,505.229401 686.812561,499.595856 
	C705.080139,485.324799 723.589661,471.334167 744.819885,461.658051 
	C767.696106,451.231720 789.274963,453.109161 808.452942,470.251648 
	C821.358643,481.787537 832.162903,494.739410 833.211182,513.193359 
	C834.043945,527.853271 831.963989,542.045715 826.683472,555.805908 
	C818.895081,576.101318 807.060425,593.949341 793.846863,610.996033 
	C791.596985,613.898621 789.342102,616.797241 786.374695,620.618042 
	C788.942566,619.866943 790.225281,619.546692 791.471252,619.119324 
	C837.436707,603.351562 880.687195,582.192139 920.383789,554.021973 
	C943.492920,537.622925 964.384033,518.949463 980.551575,495.382751 
	C999.752563,467.394226 1007.980286,436.898102 1002.340698,403.068512 
	C996.210938,366.298767 978.713318,335.438446 953.016968,309.009552 
	C934.516602,289.981781 912.482361,275.744965 889.710388,262.271423 
	C851.680420,239.770096 811.791504,221.613861 769.953674,207.624420 
	C752.778137,201.881378 735.337585,197.046677 716.628357,193.205841 
	C722.799316,201.110291 729.055664,207.723969 734.230896,215.215622 
	C746.550781,233.049927 752.586182,252.406158 749.261719,274.173309 
	C745.898804,296.191467 732.533813,310.734802 713.567566,320.597382 
	C684.850220,335.530548 653.957031,339.868866 621.995789,338.105804 
	C614.175415,337.674408 606.938721,335.335876 601.037781,329.844360 
	C597.006897,326.093048 592.992188,322.284637 590.023315,317.615784 
	C575.701477,295.093506 568.176453,270.266388 566.058044,243.840042 
	C564.994751,230.576645 565.220886,217.214630 564.579773,203.910904 
	C564.160767,195.216751 563.231750,186.547150 562.531189,177.866562 
	C558.856262,185.197754 556.057129,192.647690 553.205505,200.077515 
	C550.578308,206.922745 548.027161,208.532806 541.000549,207.001678 
	C521.373962,202.724991 501.799469,202.139832 482.122070,206.754364 
	C476.007904,208.188202 473.280823,206.419937 470.925903,200.441666 
	C468.362427,193.933914 466.015045,187.341202 463.482635,180.820816 
	C463.074890,179.771042 463.012085,178.302933 461.323181,177.738388 
	C459.626953,196.051895 458.447754,214.132858 458.178864,232.274109 
	C457.986298,245.267273 456.878754,258.132690 453.335663,270.745422 
	C448.771179,286.994080 443.900238,303.133148 433.977753,317.046265 
	C427.132385,326.644775 419.293640,335.681000 406.583588,337.109009 
	C373.358093,340.842102 341.441895,335.744324 311.434174,320.880676 
	C293.226135,311.861755 279.775726,298.398712 275.368530,277.548798 
	C270.629181,255.127518 276.185425,235.032135 288.589722,216.352905 
	C294.025726,208.167007 300.466187,200.797729 308.126190,192.604996 
	C256.447357,203.838745 208.786575,222.041428 162.445358,246.031052 
z"/>
</svg>
