<?xml version="1.0" encoding="utf-8"?>
<!-- Svg Vector Icons : http://www.onlinewebfonts.com/icon -->
<!DOCTYPE svg PUBLIC "-//W3C//DTD SVG 1.1//EN" "http://www.w3.org/Graphics/SVG/1.1/DTD/svg11.dtd">
<svg version="1.1" xmlns="http://www.w3.org/2000/svg" xmlns:xlink="http://www.w3.org/1999/xlink" x="0px" y="0px" viewBox="0 0 1000 1000" enable-background="new 0 0 1000 1000" xml:space="preserve">
<metadata> Svg Vector Icons : http://www.onlinewebfonts.com/icon </metadata>
<g><g transform="translate(0.000000,511.000000) scale(0.100000,-0.100000)"><path d="M4662.4,4516.6C3047.6,2071,1976.9-6.1,1760.4-1115.7c-74.1-376.4-68.3-717.7,21.5-1119.5c247.7-1111.6,1096-2041.9,2196-2406.6c362.7-120.9,555.8-148.2,1020-148.2c366.6,0,446.6,5.8,633.8,46.8c1177.9,251.6,2119.9,1078.5,2486.6,2184.3c126.8,382.2,191.1,809.4,167.7,1113.6c-76,953.7-908.8,2726.4-2396.8,5099.9C5612.2,4097.3,5011.5,5010,4997.8,5010C4992,5010,4841.8,4787.7,4662.4,4516.6z M5245.5,4089.5c1152.6-1765,2075.1-3448,2471-4518.7c263.3-709.9,315.9-1138.9,208.7-1694.7c-284.7-1470.5-1632.4-2478.8-3157.4-2363.7C3408.4-4384.4,2331.9-3440.4,2068.6-2124c-33.2,171.6-42.9,288.6-42.9,532.4c-1.9,286.7,3.9,331.5,60.5,555.8c206.7,821.1,784,2038,1688.9,3559.2c460.2,776.2,1189.6,1921,1222.8,1921C5005.6,4444.4,5118.8,4284.5,5245.5,4089.5z"/></g></g>
</svg>