<?xml version="1.0" encoding="utf-8"?>
<!-- Svg Vector Icons : http://www.onlinewebfonts.com/icon -->
<!DOCTYPE svg PUBLIC "-//W3C//DTD SVG 1.1//EN" "http://www.w3.org/Graphics/SVG/1.1/DTD/svg11.dtd">
<svg version="1.1" xmlns="http://www.w3.org/2000/svg" 
x="0px" y="0px" viewBox="0 0 1134 1370" enable-background="new 0 0 1000 1000" fill="none" stroke="#ff0000" stroke-width="1" xml:space="preserve">
<path d="M 765 532.1875 L 760 543.1875 L 756 555.1875 L 751 569.1875 L 746 579.1875 L 742 596.1875 L 736 615.1875 L 726 633.1875 L 718 650.1875 L 712 660.1875 L 703 673.1875 L 694 685.1875 L 680 692.1875 L 663 695.1875 L 640 692.1875 L 621 684.1875 L 606 676.1875 L 592 668.1875 L 573 661.1875 L 552 652.1875 L 528 640.1875 L 509 631.1875 L 493 624.1875 L 474 612.1875 L 461 602.1875 L 450 582.1875 L 444 571.1875 L 438 561.1875 L 427 551.1875 L 417 539.1875 L 405 521.1875 L 398 509.1875 L 389 496.1875 L 387 481.1875 L 389 467.1875 L 396 459.1875 L 408 457.1875 L 419 461.1875 L 430 474.1875 L 436 491.1875 L 441 502.1875 L 444 507.1875 L 449 503.1875 L 451 493.1875 L 452 487.1875 L 452 481.1875 L 454 473.1875 L 454 463.1875 L 456 456.1875 L 470 454.1875 L 492 449.1875 L 506 445.1875 L 512 442.1875 L 523 435.1875 L 532 429.1875 L 541 422.1875 L 549 417.1875 L 558 413.1875 L 572 411.1875 L 587 415.1875 L 595 419.1875 L 603 432.1875 L 596 448.1875 L 588 456.1875 L 574 462.1875 L 562 461.1875 L 546 461.1875 L 535 461.1875 L 527 459.1875 L 525 451.1875 L 531 445.1875 L 539 441.1875 L 545 438.1875 L 551 444.1875 L 553 447.1875 L 557 449.1875 L 562 448.1875 L 566 447.1875 L 569 445.1875 L 570 442.1875 L 571 439.1875 L 571 433.1875 L 574 433.1875 L 581 438.1875 L 586 440.1875 L 606 442.1875 L 611 440.1875 L 611 432.1875 L 611 423.1875 L 610 416.1875 L 609 407.1875 L 609 401.1875 L 611 395.1875 L 613 390.1875 L 606 386.1875 L 594 384.1875 L 586 383.1875 L 574 385.1875 L 561 385.1875 L 549 386.1875 L 543 387.1875 L 530 389.1875 L 523 392.1875 L 515 399.1875 L 506 407.1875 L 499 412.1875 L 485 421.1875 L 475 427.1875 L 467 431.1875 L 467 420.1875 L 469 408.1875 L 468 403.1875 L 466 391.1875 L 458 378.1875 L 449 370.1875 L 440 360.1875 L 442 350.1875 L 455 345.1875 L 468 345.1875 L 488 350.1875 L 497 355.1875 L 486 344.1875 L 477 337.1875 L 467 328.1875 L 461 320.1875 L 479 324.1875 L 493 331.1875 L 505 334.1875 L 501 328.1875 L 494 320.1875 L 490 313.1875 L 489 304.1875 L 494 295.1875 L 499 286.1875 L 505 280.1875 L 515 269.1875 L 517 281.1875 L 519 291.1875 L 526 297.1875 L 534 303.1875 L 544 307.1875 L 556 308.1875 L 568 306.1875 L 582 304.1875 L 591 297.1875 L 598 292.1875 L 606 287.1875 L 614 279.1875 L 622 274.1875 L 631 274.1875 L 645 283.1875 L 651 288.1875 L 662 297.1875 L 667 304.1875 L 672 318.1875 L 677 335.1875 L 679 346.1875 L 684 333.1875 L 686 324.1875 L 688 317.1875 L 695 316.1875 L 699 322.1875 L 703 336.1875 L 709 346.1875 L 716 354.1875 L 723 360.1875 L 730 364.1875 L 739 366.1875 L 747 365.1875 L 755 363.1875 L 756 367.1875 L 756 376.1875 L 756 389.1875 L 755 399.1875 L 754 407.1875 L 747 402.1875 L 740 392.1875 L 735 387.1875 L 730 383.1875 L 723 380.1875 L 716 380.1875 L 703 379.1875 L 688 378.1875 L 678 382.1875 L 669 390.1875 L 665 398.1875 L 661 407.1875 L 660 417.1875 L 659 427.1875 L 660 437.1875 L 667 454.1875 L 669 467.1875 L 674 478.1875 L 678 492.1875 L 682 504.1875 L 686 516.1875 L 690 524.1875 L 691 532.1875 L 690 538.1875 L 685 542.1875 L 681 545.1875 L 676 548.1875 L 675 543.1875 L 677 537.1875 L 677 530.1875 L 673 530.1875 L 670 534.1875 L 667 539.1875 L 664 543.1875 L 661 545.1875 L 657 545.1875 L 650 544.1875 L 649 539.1875 L 648 534.1875 L 649 530.1875 L 649 525.1875 L 644 525.1875 L 639 527.1875 L 635 531.1875 L 630 536.1875 L 627 539.1875 L 623 539.1875 L 617 537.1875 L 614 529.1875 L 612 520.1875 L 613 517.1875 L 616 512.1875 L 619 508.1875 L 611 509.1875 L 606 513.1875 L 600 519.1875 L 596 524.1875 L 592 530.1875 L 587 536.1875 L 582 543.1875 L 579 549.1875 L 575 557.1875 L 572 562.1875 L 568 569.1875 L 565 576.1875 L 563 582.1875 L 561 589.1875 L 566 586.1875 L 573 580.1875 L 577 577.1875 L 582 574.1875 L 592 574.1875 L 599 576.1875 L 604 577.1875 L 610 579.1875 L 614 577.1875 L 623 575.1875 L 628 571.1875 L 632 568.1875 L 638 567.1875 L 647 568.1875 L 652 571.1875 L 659 574.1875 L 666 574.1875 L 671 572.1875 L 676 568.1875 L 681 566.1875 L 686 566.1875 L 695 569.1875 L 698 575.1875 L 692 582.1875 L 687 587.1875 L 679 594.1875 L 672 599.1875 L 661 602.1875 L 653 603.1875 L 645 601.1875 L 636 599.1875 L 629 596.1875 L 620 590.1875 L 617 584.1875 L 642 583.1875 L 660 584.1875 L 677 583.1875 L 705 578.1875 L 706 587.1875 L 713 583.1875 L 716 575.1875 L 718 566.1875 L 719 556.1875 L 717 548.1875 L 716 542.1875 L 713 534.1875 L 710 530.1875 L 704 522.1875 L 695 517.1875 L 675 465.1875 L 675 460.1875 L 680 459.1875 L 689 467.1875 L 701 473.1875 L 710 474.1875 L 718 473.1875 L 725 471.1875 L 731 467.1875 L 736 464.1875 L 738 460.1875 L 738 455.1875 L 734 451.1875 L 729 448.1875 L 722 449.1875 L 717 454.1875 L 712 455.1875 L 699 454.1875 L 690 453.1875 L 678 449.1875 L 671 446.1875 L 670 438.1875 L 669 425.1875 L 670 414.1875 L 674 406.1875 L 680 400.1875 L 686 396.1875 L 694 392.1875 L 700 387.1875 L 706 386.1875 L 715 387.1875 L 723 390.1875 L 730 394.1875 L 736 400.1875 L 743 409.1875 L 749 417.1875 L 751 421.1875 L 750 429.1875 L 745 432.1875 L 739 434.1875 L 733 436.1875 L 727 431.1875 L 722 425.1875 L 714 421.1875 L 711 419.1875 L 703 417.1875 L 694 417.1875 L 687 420.1875 L 681 424.1875 L 676 428.1875 L 673 434.1875 L 675 442.1875 L 680 440.1875 L 684 433.1875 L 685 437.1875 L 687 440.1875 L 692 443.1875 L 696 443.1875 L 700 441.1875 L 704 437.1875 L 704 435.1875 L 705 430.1875 L 710 431.1875 L 717 435.1875 L 722 438.1875 L 729 441.1875 L 736 444.1875 L 741 446.1875 L 747 450.1875 L 752 453.1875 L 759 459.1875 L 762 465.1875 L 765 474.1875 L 766 487.1875 L 762 496.1875 L 767 498.1875 L 778 500.1875 L 786 498.1875 L 792 493.1875 L 802 486.1875 L 806 478.1875 L 808 471.1875 L 808 459.1875 L 805 449.1875 L 802 440.1875 L 800 436.1875 L 799 428.1875 L 802 421.1875 L 808 414.1875 L 813 411.1875 L 818 408.1875 L 823 404.1875 L 827 401.1875 L 831 396.1875 L 830 391.1875 L 823 394.1875 L 814 399.1875 L 805 402.1875 L 802 397.1875 L 807 389.1875 L 810 383.1875 L 813 379.1875 L 818 374.1875 L 820 369.1875 L 822 364.1875 L 822 360.1875 L 823 356.1875 L 823 352.1875 L 820 346.1875 L 817 344.1875 L 813 341.1875 L 810 337.1875 L 809 336.1875 L 809 332.1875 L 808 321.1875 L 808 314.1875 L 810 305.1875 L 810 297.1875 L 810 291.1875 L 808 282.1875 L 806 277.1875 L 803 268.1875 L 802 259.1875 L 794 248.1875 L 789 242.1875 L 783 240.1875 L 774 237.1875 L 770 236.1875 L 764 235.1875 L 759 235.1875 L 763 228.1875 L 766 211.1875 L 761 196.1875 L 757 191.1875 L 747 180.1875 L 739 176.1875 L 733 172.1875 L 727 172.1875 L 721 173.1875 L 716 174.1875 L 713 175.1875 L 711 169.1875 L 712 162.1875 L 710 155.1875 L 706 148.1875 L 701 144.1875 L 693 141.1875 L 691 141.1875 L 689 140.1875 L 678 140.1875 L 674 140.1875 L 665 142.1875 L 658 144.1875 L 651 147.1875 L 647 149.1875 L 643 152.1875 L 644 141.1875 L 645 134.1875 L 643 127.1875 L 641 120.1875 L 638 115.1875 L 636 110.1875 L 633 106.1875 L 629 104.1875 L 627 109.1875 L 625 125.1875 L 623 127.1875 L 616 136.1875 L 608 140.1875 L 602 142.1875 L 593 143.1875 L 585 141.1875 L 580 138.1875 L 570 133.1875 L 561 128.1875 L 551 125.1875 L 546 124.1875 L 538 122.1875 L 528 122.1875 L 521 122.1875 L 517 124.1875 L 510 128.1875 L 505 133.1875 L 503 136.1875 L 495 130.1875 L 483 126.1875 L 473 129.1875 L 466 132.1875 L 461 136.1875 L 453 145.1875 L 451 149.1875 L 446 162.1875 L 446 164.1875 L 434 165.1875 L 416 166.1875 L 411 170.1875 L 406 174.1875 L 400 181.1875 L 396 186.1875 L 390 195.1875 L 388 199.1875 L 380 212.1875 L 372 217.1875 L 362 220.1875 L 356 227.1875 L 353 234.1875 L 350 244.1875 L 348 255.1875 L 347 265.1875 L 346 273.1875 L 345 280.1875 L 345 291.1875 L 345 304.1875 L 344 315.1875 L 340 318.1875 L 334 326.1875 L 329 333.1875 L 326 344.1875 L 325 352.1875 L 326 362.1875 L 330 373.1875 L 335 383.1875 L 341 389.1875 L 337 394.1875 L 327 395.1875 L 318 400.1875 L 311 408.1875 L 304 413.1875 L 305 418.1875 L 311 425.1875 L 317 432.1875 L 322 441.1875 L 325 447.1875 L 327 451.1875 L 330 459.1875 L 333 466.1875 L 334 474.1875 L 335 480.1875 L 335 486.1875 L 334 489.1875 L 334 496.1875 L 334 504.1875 L 336 510.1875 L 337 513.1875 L 342 517.1875 L 348 522.1875 L 357 525.1875 L 364 525.1875 L 371 525.1875 L 376 525.1875 L 386 526.1875 L 391 527.1875 L 398 531.1875 L 401 537.1875 L 402 543.1875 L 402 553.1875 L 400 557.1875 L 394 561.1875 L 385 566.1875 L 381 568.1875 L 374 573.1875 L 370 580.1875 L 368 586.1875 L 366 596.1875 L 365 602.1875 L 362 615.1875 L 362 629.1875 L 361 640.1875 L 358 652.1875 L 355 670.1875 L 352 682.1875 L 347 695.1875 L 342 703.1875 L 335 710.1875 L 326 718.1875 L 317 723.1875 L 313 728.1875 L 311 737.1875 L 310 742.1875 L 307 748.1875 L 300 754.1875 L 294 758.1875 L 288 763.1875 L 281 769.1875 L 274 776.1875 L 265 784.1875 L 257 791.1875 L 250 797.1875 L 243 804.1875 L 236 811.1875 L 228 817.1875 L 220 827.1875 L 215 833.1875 L 210 837.1875 L 199 843.1875 L 184 855.1875 L 180 859.1875 L 167 873.1875 L 160 879.1875 L 152 883.1875 L 147 888.1875 L 140 895.1875 L 134 904.1875 L 129 912.1875 L 121 925.1875 L 112 937.1875 L 108 946.1875 L 101 959.1875 L 95 973.1875 L 90 989.1875 L 85 1013.1875 L 79 1033.1875 L 76 1048.1875 L 76 1052.1875 L 73 1076.1875 L 71 1095.1875 L 70 1126.1875 L 71 1147.1875 L 69 1152.1875 L 70 1164.1875 L 69 1188.1875 L 69 1200.1875 L 69 1230.1875 L 70 1236.1875 L 85 1241.1875 L 99 1241.1875 L 112 1242.1875 L 121 1244.1875 L 138 1252.1875 L 158 1260.1875 L 165 1262.1875 L 194 1270.1875 L 209 1275.1875 L 230 1280.1875 L 239 1282.1875 L 257 1287.1875 L 265 1292.1875 L 279 1300.1875 L 295 1305.1875 L 315 1312.1875 L 329 1318.1875 L 346 1322.1875 L 353 1321.1875 L 359 1317.1875 L 369 1304.1875 L 372 1296.1875 L 374 1284.1875 L 375 1268.1875 L 373 1259.1875 L 367 1244.1875 L 366 1231.1875 L 363 1201.1875 L 362 1195.1875 L 358 1172.1875 L 357 1163.1875 L 355 1154.1875 L 357 1137.1875 L 358 1131.1875 L 361 1117.1875 L 370 1104.1875 L 372 1095.1875 L 373 1087.1875 L 375 1081.1875 L 377 1067.1875 L 373 1054.1875 L 368 1042.1875 L 360 1032.1875 L 358 1038.1875 L 363 1051.1875 L 370 1070.1875 L 375 1096.1875 L 379 1120.1875 L 377 1139.1875 L 377 1162.1875 L 376 1182.1875 L 374 1206.1875 L 373 1224.1875 L 373 1240.1875 L 372 1277.1875 L 373 1318.1875 L 377 1337.1875 L 379 1348.1875 L 394 1350.1875 L 416 1350.1875 L 440 1352.1875 L 448 1352.1875 L 481 1355.1875 L 501 1360.1875 L 537 1364.1875 L 569 1360.1875 L 612 1360.1875 L 642 1361.1875 L 673 1360.1875 L 693 1358.1875 L 717 1356.1875 L 720 1351.1875 L 726 1341.1875 L 728 1335.1875 L 729 1328.1875 L 726 1321.1875 L 724 1313.1875 L 723 1304.1875 L 723 1292.1875 L 723 1272.1875 L 724 1254.1875 L 724 1245.1875 L 724 1231.1875 L 722 1223.1875 L 714 1216.1875 L 706 1218.1875 L 698 1229.1875 L 694 1234.1875 L 684 1241.1875 L 665 1245.1875 L 653 1240.1875 L 646 1229.1875 L 645 1222.1875 L 647 1209.1875 L 652 1200.1875 L 658 1194.1875 L 667 1187.1875 L 675 1186.1875 L 691 1191.1875 L 707 1201.1875 L 714 1204.1875 L 719 1198.1875 L 713 1181.1875 L 708 1157.1875 L 700 1135.1875 L 693 1119.1875 L 686 1098.1875 L 681 1085.1875 L 678 1071.1875 L 678 1061.1875 L 675 1053.1875 L 669 1050.1875 L 662 1051.1875 L 656 1052.1875 L 652 1055.1875 L 650 1063.1875 L 647 1069.1875 L 637 1078.1875 L 622 1081.1875 L 611 1079.1875 L 606 1076.1875 L 600 1067.1875 L 600 1057.1875 L 601 1044.1875 L 606 1034.1875 L 612 1030.1875 L 626 1023.1875 L 636 1026.1875 L 646 1033.1875 L 653 1037.1875 L 660 1035.1875 L 662 1032.1875 L 659 1022.1875 L 654 1015.1875 L 647 1001.1875 L 640 986.1875 L 634 969.1875 L 628 954.1875 L 623 942.1875 L 612 921.1875 L 607 913.1875 L 598 900.1875 L 589 895.1875 L 582 895.1875 L 581 909.1875 L 578 921.1875 L 573 931.1875 L 565 938.1875 L 552 940.1875 L 541 938.1875 L 531 925.1875 L 530 915.1875 L 532 898.1875 L 536 893.1875 L 545 887.1875 L 557 884.1875 L 567 884.1875 L 576 883.1875 L 583 879.1875 L 586 861.1875 L 582 852.1875 L 575 846.1875 L 560 836.1875 L 549 828.1875 L 545 812.1875 L 537 789.1875 L 529 770.1875 L 523 752.1875 L 518 741.1875 L 512 729.1875 L 506 717.1875 L 499 700.1875 L 497 684.1875 L 494 673.1875 L 475 662.1875 L 463 654.1875 L 453 649.1875 L 444 646.1875 L 429 637.1875 L 423 632.1875 L 412 623.1875 L 403 614.1875 L 393 600.1875 L 389 588.1875 L 389 576.1875 L 396 573.1875 L 405 575.1875 L 419 592.1875 L 429 603.1875 L 439 613.1875 L 451 622.1875 L 462 633.1875 L 472 641.1875 L 480 646.1875 L 492 654.1875 L 503 662.1875 L 510 674.1875 L 514 684.1875 L 517 695.1875 L 524 706.1875 L 531 712.1875 L 539 722.1875 L 545 731.1875 L 550 739.1875 L 556 749.1875 L 561 762.1875 L 566 773.1875 L 574 791.1875 L 578 804.1875 L 584 816.1875 L 591 829.1875 L 604 835.1875 L 614 836.1875 L 640 836.1875 L 658 834.1875 L 673 831.1875 L 686 829.1875 L 696 827.1875 L 704 824.1875 L 714 814.1875 L 717 792.1875 L 714 773.1875 L 713 761.1875 L 712 746.1875 L 713 724.1875 L 715 717.1875 L 722 702.1875 L 728 692.1875 L 733 684.1875 L 736 677.1875 L 744 670.1875 L 757 673.1875 L 766 685.1875 L 778 712.1875 L 785 732.1875 L 790 751.1875 L 788 765.1875 L 795 789.1875 L 801 810.1875 L 802 822.1875 L 801 832.1875 L 801 849.1875 L 805 861.1875 L 819 871.1875 L 832 880.1875 L 838 885.1875 L 843 890.1875 L 851 901.1875 L 853 911.1875 L 854 928.1875 L 856 945.1875 L 857 961.1875 L 859 977.1875 L 859 997.1875 L 859 1013.1875 L 864 1030.1875 L 862 1051.1875 L 860 1073.1875 L 850 1090.1875 L 842 1106.1875 L 834 1122.1875 L 828 1144.1875 L 823 1155.1875 L 818 1165.1875 L 811 1176.1875 L 807 1182.1875 L 798 1195.1875 L 791 1199.1875 L 780 1206.1875 L 775 1209.1875 L 776 1220.1875 L 779 1229.1875 L 781 1239.1875 L 782 1258.1875 L 782 1264.1875 L 782 1277.1875 L 785 1292.1875 L 788 1307.1875 L 788 1314.1875 L 786 1327.1875 L 786 1330.1875 L 785 1334.1875 L 787 1342.1875 L 798 1347.1875 L 820 1348.1875 L 833 1348.1875 L 855 1343.1875 L 876 1339.1875 L 884 1336.1875 L 898 1331.1875 L 910 1322.1875 L 917 1316.1875 L 927 1309.1875 L 946 1299.1875 L 954 1286.1875 L 962 1273.1875 L 968 1264.1875 L 975 1256.1875 L 985 1248.1875 L 995 1240.1875 L 1007 1234.1875 L 1015 1230.1875 L 1025 1223.1875 L 1030 1218.1875 L 1035 1205.1875 L 1035 1187.1875 L 1036 1171.1875 L 1035 1159.1875 L 1035 1138.1875 L 1035 1123.1875 L 1032 1104.1875 L 1030 1085.1875 L 1026 1066.1875 L 1024 1051.1875 L 1021 1036.1875 L 1019 1026.1875 L 1008 1007.1875 L 998 986.1875 L 985 965.1875 L 975 945.1875 L 963 924.1875 L 923 859.1875 L 913 841.1875 L 904 830.1875 L 882 821.1875 L 867 818.1875 L 848 810.1875 L 840 799.1875 L 834 791.1875 L 823 770.1875 L 821 748.1875 L 819 729.1875 L 819 710.1875 L 817 703.1875 L 811 684.1875 L 800 671.1875 L 793 667.1875 L 782 665.1875 L 773 664.1875 L 765 662.1875 L 760 660.1875 L 750 650.1875 L 748 648.1875 L 748 636.1875 L 751 613.1875 L 753 593.1875 L 756 571.1875 L 760 553.1875 L 765 531.1875 Z"/>
</svg>
