<?xml version="1.0" encoding="utf-8"?>
<!-- Svg Vector Icons : http://www.onlinewebfonts.com/icon -->
<!DOCTYPE svg PUBLIC "-//W3C//DTD SVG 1.1//EN" "http://www.w3.org/Graphics/SVG/1.1/DTD/svg11.dtd">
<svg version="1.1" xmlns="http://www.w3.org/2000/svg" xmlns:xlink="http://www.w3.org/1999/xlink" x="0px" y="0px" viewBox="0 0 1000 1000" enable-background="new 0 0 1000 1000" xml:space="preserve">
<metadata> Svg Vector Icons : http://www.onlinewebfonts.com/icon </metadata>
<g><g transform="translate(0.000000,512.000000) scale(0.100000,-0.100000)"><path d="M5685.4,5010.1c-300.9-21.1-709.2-99.7-977.5-187.8c-162.9-53.7-475.3-210.8-634.4-316.2c-191.7-130.3-469.6-406.3-596.1-594.2c-251.1-375.7-387.2-755.1-465.7-1311c-44.1-316.2-51.8-1004.3-19.2-1669.4c9.6-199.3,15.3-366.1,11.5-369.9c-3.8-3.8-92,59.4-197.4,141.8c-103.5,80.5-247.2,176.3-322,210.8c-341.2,162.9-718.7,157.2-1077.1-15.3c-176.3-86.2-412.1-320.1-498.3-496.4c-118.8-243.4-153.3-546.2-90.1-816.5c34.5-155.2,153.3-408.2,239.6-509.8c32.6-40.2,212.7-195.5,398.6-343.1c1121.2-898.9,1748-1610,1853.4-2102.5c15.3-80.5,26.8-247.2,26.8-454.2c0-364.2,21.1-471.5,118.8-624.8c76.7-120.7,170.6-201.2,322-272.2L3903-4780h2002.9h2002.9l120.7,55.6c149.5,69,287.5,216.6,350.7,371.8c38.3,99.7,44.1,151.4,55.6,636.3c17.2,653.6,53.7,866.3,325.8,1955c339.2,1357,450.4,2070,450.4,2913.3c0,540.5-23,806.9-105.4,1217.1c-300.9,1500.7-1257.3,2457.1-2623.9,2627.7C6283.4,5021.6,5934.6,5027.3,5685.4,5010.1z M6339,4613.3c605.7-36.4,1197.9-310.5,1615.7-751.3c582.6-615.2,864.4-1481.5,866.3-2652.6c1.9-789.6-90.1-1416.4-377.6-2616.2c-383.3-1588.9-371.8-1531.4-389.1-2213.7c-11.5-469.6-17.2-534.7-49.8-601.8c-47.9-95.8-115-145.7-222.3-166.7c-122.7-23-3630.1-21.1-3754.7,1.9c-55.6,11.5-130.3,42.2-166.8,69c-118.8,90.1-126.5,124.6-141.8,601.8c-9.6,352.7-19.2,452.3-49.8,546.2C3477.5-2587.4,2822-1855.2,1666.3-931.4C1511-808.8,1359.6-670.8,1327-624.8c-141.8,207-187.8,559.7-99.7,782c76.7,199.3,256.8,364.2,483,438.9c99.7,34.5,155.2,40.2,295.2,34.5c241.5-9.6,343.1-63.2,760.9-394.8C2952.3,88.2,3128.7-46,3159.3-61.3c76.7-40.2,168.7-21.1,226.2,47.9c53.7,65.2,59.4,132.2,28.8,437C3377.8,801.2,3351,1955,3374,2255.9c57.5,787.7,253,1295.6,651.7,1696.2c331.6,331.6,736,521.3,1324.4,622.9c172.5,28.8,663.2,63.2,766.7,53.7C6143.5,4624.8,6243.2,4619.1,6339,4613.3z"/></g></g>
</svg>