<?xml version="1.0" encoding="utf-8"?>
<!-- Svg Vector Icons : http://www.onlinewebfonts.com/icon -->
<!DOCTYPE svg PUBLIC "-//W3C//DTD SVG 1.1//EN" "http://www.w3.org/Graphics/SVG/1.1/DTD/svg11.dtd">
<svg version="1.1" xmlns="http://www.w3.org/2000/svg" xmlns:xlink="http://www.w3.org/1999/xlink" x="0px" y="0px" viewBox="0 0 1000 1000" enable-background="new 0 0 1000 1000" xml:space="preserve">
<metadata> Svg Vector Icons : http://www.onlinewebfonts.com/icon </metadata>
<g><g transform="translate(0.000000,511.000000) scale(0.100000,-0.100000)"><path d="M494.5,4959.5c-46.5-58.1-48.5-79.5-21.3-157c11.6-29.1,498.2-531.1,1087.4-1120.4l1064.1-1066.1L2334,2325.3c-308.2-306.2-329.5-341.1-302.4-482.6c11.6-56.2,197.7-252,1159.1-1213.4L4336.3-518.2l-721.1-721.1c-668.7-668.7-723-728.8-732.7-800.5c-13.6-96.9,31-188,112.4-228.7c31-17.5,1467.3-593.1,3190.5-1281.2c3392.1-1353,3240.9-1300.6,3326.2-1188.2c83.3,112.4,100.8,91.1-1135.9,1329.7L7228.3-2258.8l391.6,391.5c420.6,424.5,441.9,457.4,395.4,600.9c-15.5,44.6-362.5,405.1-1203.7,1246.3L5629.2,1162.3l618.3,620.3c418.7,418.7,624.1,637.7,633.8,674.5c15.5,67.8-17.4,190-63.9,230.7c-19.4,17.4-1221.2,476.8-2671,1023.4C2696.5,4257.9,1328,4773.4,1107,4856.8C647.6,5029.3,562.4,5044.8,494.5,4959.5z M3875,3486.4c1440.2-540.8,2620.6-986.6,2626.4-990.5c3.9-3.9-255.8-271.4-577.6-593.1c-443.9-443.9-589.3-602.8-604.8-653.2c-46.5-160.9-91.1-106.6,1197.9-1399.5l1195.9-1197.9l-391.5-391.5c-252-253.9-395.4-412.9-403.2-447.8c-38.8-153.1-58.1-129.9,944-1132c515.6-515.6,930.4-936.2,924.6-936.2c-5.8,0-1236.7,488.5-2733,1087.4C4557.3-2569,3310.9-2072.8,3285.7-2063.1c-46.5,19.4-13.6,54.3,643.5,711.4c395.4,395.4,699.7,717.2,711.4,750.1c11.6,31,15.5,91.1,9.7,135.7c-11.6,71.7-98.9,162.8-1159.1,1225L2345.6,1908.6l294.6,296.6l294.6,296.6v102.7c0,56.2-9.7,120.2-21.3,143.4c-11.6,23.3-401.2,424.5-868.4,893.6c-465.2,467.1-831.5,845.1-816,841.2C1244.6,4476.9,2436.7,4029.1,3875,3486.4z"/></g></g>
</svg>